# xmcd
#
# Track frame offsets: 
#        150
#        14709
#        45580
#        84895
#        103068
#        132173
#        154339
#        168269
#        179224
#        200192
#        221207
#        233857
#        253657
#        285119
#        307432
#
# Disc length: 4593 seconds
#
# Revision: 0
# Processed by: cddbd v1.5.2PL0 Copyright (c) Steve Scherf et al.
# Submitted via: ExactAudioCopy v1.0b3
#
DISCID=e111ef0f
DTITLE=Various Artist - Hammerstorm Vol.I
DYEAR=2014
DGENRE=NS Black Metal
TTITLE0=Astral Legions - Day of the Rope
TTITLE1=Ordnung - Kulturkampf
TTITLE2=1389 - Mora
TTITLE3=Godcider - To the Greatest Man
TTITLE4=Volkmag - Volk Julle
TTITLE5=Sadomaso Control - Bestiallized with Agrotoxxx
TTITLE6=Tank Genocide - The Voice of Revolt
TTITLE7=Ancestral Purity - Our Banner Means W.A.R.
TTITLE8=Whispersorrow - White Hate
TTITLE9=Axis of Blood - The Future Belongs to Us!
TTITLE10=Fyrfos - Beyond the Void of Night I
TTITLE11=Грома Глас - Fiery Flames of Kristallnacht
TTITLE12=Aryan Assault - You Gave Up Your Existance
TTITLE13=Tragedy Begins - Desecrator Catastrophism
TTITLE14=Austrum Legio - Força and Honra Pela Gloria
EXTD=
EXTT0=
EXTT1=
EXTT2=
EXTT3=
EXTT4=
EXTT5=
EXTT6=
EXTT7=
EXTT8=
EXTT9=
EXTT10=
EXTT11=
EXTT12=
EXTT13=
EXTT14=
PLAYORDER=
